<svg width="17" height="16" viewBox="0 0 17 16" fill="none" xmlns="http://www.w3.org/2000/svg">
<path fill-rule="evenodd" clip-rule="evenodd" d="M5.83815 2.61143C5.79549 2.68229 5.79549 2.77143 5.83815 2.84304L13.1454 15.066C13.1858 15.1338 13.2597 15.1757 13.3389 15.1757H15.7891C15.9644 15.1757 16.0726 14.9852 15.9827 14.8344L7.35812 0.405774C7.3124 0.329586 7.20116 0.329586 7.15545 0.405774L5.83815 2.61143Z" fill="#11AF4B"/>
<path fill-rule="evenodd" clip-rule="evenodd" d="M5.75444 5.22095H6.98869C7.07555 5.22095 7.12964 5.31466 7.08621 5.39009L6.46908 6.45901L5.85196 7.52794C5.80853 7.60336 5.70034 7.60336 5.65692 7.52794L5.03979 6.45901L4.42266 5.39009C4.37923 5.31466 4.43333 5.22095 4.52018 5.22095H5.75444Z" fill="#FF7300"/>
<path fill-rule="evenodd" clip-rule="evenodd" d="M4.28007 7.69995H5.51432C5.60118 7.69995 5.65527 7.79366 5.61185 7.86909L4.99472 8.93801L4.37759 10.0069C4.33417 10.0824 4.22598 10.0824 4.18255 10.0069L3.56542 8.93801L2.9483 7.86909C2.90487 7.79366 2.95896 7.69995 3.04582 7.69995H4.28007Z" fill="#FF7300"/>
<path fill-rule="evenodd" clip-rule="evenodd" d="M2.79667 10.218H4.03093C4.11778 10.218 4.17188 10.3117 4.12845 10.3872L3.51132 11.4561L2.89419 12.525C2.85077 12.6004 2.74258 12.6004 2.69915 12.525L2.08202 11.4561L1.4649 10.3872C1.42147 10.3117 1.47556 10.218 1.56242 10.218H2.79667Z" fill="#FF7300"/>
<path fill-rule="evenodd" clip-rule="evenodd" d="M1.3621 12.8032H2.59636C2.68321 12.8032 2.7373 12.8969 2.69388 12.9724L2.07675 14.0413L1.45962 15.1102C1.41619 15.1856 1.30801 15.1856 1.26458 15.1102L0.647455 14.0413L0.0303271 12.9724C-0.0131004 12.8969 0.0409934 12.8032 0.127848 12.8032H1.3621Z" fill="#FF7300"/>
<path fill-rule="evenodd" clip-rule="evenodd" d="M4.28996 12.8032H5.52421C5.61107 12.8032 5.66516 12.8969 5.62173 12.9724L5.00461 14.0413L4.38748 15.1102C4.34405 15.1856 4.23587 15.1856 4.19244 15.1102L3.57531 14.0413L2.95818 12.9724C2.91476 12.8969 2.96885 12.8032 3.0557 12.8032H4.28996Z" fill="#FF7300"/>
<path fill-rule="evenodd" clip-rule="evenodd" d="M7.25676 12.8032H8.49101C8.57787 12.8032 8.63196 12.8969 8.58853 12.9724L7.97141 14.0413L7.35428 15.1102C7.31085 15.1856 7.20266 15.1856 7.15923 15.1102L6.54211 14.0413L5.92498 12.9724C5.88155 12.8969 5.93565 12.8032 6.0225 12.8032H7.25676Z" fill="#FF7300"/>
<path fill-rule="evenodd" clip-rule="evenodd" d="M10.2244 12.8032H11.4587C11.5455 12.8032 11.5996 12.8969 11.5562 12.9724L10.9391 14.0413L10.3219 15.1102C10.2785 15.1856 10.1703 15.1856 10.1269 15.1102L9.50976 14.0413L8.89263 12.9724C8.8492 12.8969 8.9033 12.8032 8.99015 12.8032H10.2244Z" fill="#FF7300"/>
<path fill-rule="evenodd" clip-rule="evenodd" d="M5.79313 10.218H7.02739C7.11424 10.218 7.16833 10.3117 7.12491 10.3872L6.50778 11.4561L5.89065 12.525C5.84723 12.6004 5.73904 12.6004 5.69561 12.525L5.07848 11.4561L4.46136 10.3872C4.41793 10.3117 4.47202 10.218 4.55888 10.218H5.79313Z" fill="#FF7300"/>
<path fill-rule="evenodd" clip-rule="evenodd" d="M8.68229 10.218H9.91655C10.0034 10.218 10.0575 10.3117 10.0141 10.3872L9.39694 11.4561L8.77981 12.525C8.73639 12.6004 8.6282 12.6004 8.58477 12.525L7.96765 11.4561L7.35052 10.3872C7.30709 10.3117 7.36119 10.218 7.44804 10.218H8.68229Z" fill="#FF7300"/>
<path fill-rule="evenodd" clip-rule="evenodd" d="M7.29655 7.69995H8.5308C8.61766 7.69995 8.67176 7.79366 8.62833 7.86909L8.0112 8.93801L7.39407 10.0069C7.35065 10.0824 7.24246 10.0824 7.19903 10.0069L6.5819 8.93801L5.96478 7.86909C5.92135 7.79366 5.97544 7.69995 6.0623 7.69995H7.29655Z" fill="#FF7300"/>
</svg>
