<?xml version="1.0" encoding="UTF-8"?>
<svg width="386px" height="98px" viewBox="0 0 386 98" version="1.1" xmlns="http://www.w3.org/2000/svg" xmlns:xlink="http://www.w3.org/1999/xlink">
    <!-- Generator: Sketch 52.5 (67469) - http://www.bohemiancoding.com/sketch -->
    <title>smallcase_logo__standard_blue</title>
    <desc>Created with Sketch.</desc>
    <defs>
        <polygon id="path-1" points="0 0 386.538462 0 386.538462 100 0 100"></polygon>
    </defs>
    <g id="Page-1" stroke="none" stroke-width="1" fill="none" fill-rule="evenodd">
        <g id="_standard_blue" transform="translate(-1.000000, -1.000000)">
            <g id="Group-3-Copy-6">
                <mask id="mask-2" fill="white">
                    <use xlink:href="#path-1"></use>
                </mask>
                <g id="Clip-2"></g>
                <path d="M380.108022,46.3907979 C379.960817,42.7661349 377.039076,39.5742124 372.654601,39.5742124 C367.832238,39.5742124 365.055838,42.6200388 364.61795,46.3889486 L380.108022,46.3889486 L380.108022,46.3907979 Z M372.801806,34.0650946 C380.691253,34.0650946 386.538462,39.8645553 386.538462,47.840663 C386.538462,48.4231982 386.538462,49.434775 386.391256,49.871214 C386.391256,50.5942973 385.660821,51.1768324 385.075728,51.1768324 L364.178198,51.1768324 C364.178198,55.2379343 367.979443,59.297187 373.239695,59.297187 C376.746529,59.297187 378.792494,57.9934179 380.691253,56.8338956 C381.27821,56.3974566 381.863303,56.2513605 382.446533,56.9781424 L384.196224,59.7354753 C384.783181,60.3124625 384.930386,60.8912989 384.052746,61.7641769 C381.859576,63.6504811 377.914853,65.534936 372.801806,65.534936 C363.593104,65.534936 357.749622,58.4298569 357.749622,49.871214 C357.749622,41.3162698 363.596831,34.0650946 372.801806,34.0650946 Z M331.888114,62.4872602 C331.450226,62.1987666 331.00861,61.6180808 331.303021,60.8912989 L332.618549,58.1376647 C332.909233,57.5588282 333.786873,57.2703346 334.515445,57.7049243 C336.272589,58.7183505 338.460168,59.8778728 341.967003,59.8778728 C344.450856,59.8778728 345.913589,58.7146519 345.913589,56.9781424 C345.913589,54.9494408 343.575079,53.6438224 339.485014,51.7575182 C334.806129,49.7251179 331.303021,47.2636759 331.303021,42.3315452 C331.303021,38.5589369 333.930352,34.207492 341.238431,34.207492 C345.475701,34.207492 348.544647,35.5131104 350.003654,36.3841391 C350.735953,36.9629756 351.030363,37.8340043 350.588748,38.5589369 L349.567629,40.5876385 C349.129741,41.4586672 348.2521,41.4586672 347.667007,41.1701737 C345.622906,40.299145 343.575079,39.7221578 341.238431,39.7221578 C338.609237,39.7221578 337.440913,41.0240775 337.440913,42.3315452 C337.440913,44.2141508 339.628492,45.3736731 342.55396,46.6829901 C348.104895,49.0001853 352.345892,51.0307363 352.345892,56.5417034 C352.345892,61.1834911 348.2521,65.2445931 341.529114,65.2445931 C337.001161,65.534936 333.639668,63.6504811 331.884387,62.4872602 L331.888114,62.4872602 Z M310.696174,60.1663663 C313.766984,60.1663663 316.83593,57.9934179 317.71357,56.5435527 L317.71357,51.6114221 C317.273819,51.3210792 314.931581,50.5942973 312.160772,50.5942973 C308.65021,50.5942973 305.873811,52.4843001 305.873811,55.5264279 C306.021016,58.1376647 307.630955,60.1663663 310.696174,60.1663663 Z M311.722883,45.8101121 C314.788103,45.8101121 317.857049,46.6792915 317.857049,46.6792915 C318.004254,41.8951062 316.83593,39.8682539 313.034685,39.8682539 C309.527851,39.8682539 306.168221,40.8816801 304.562009,41.3162698 C303.684368,41.4586672 303.099275,40.8816801 302.808591,40.0106514 L302.221635,37.5455107 C302.078156,36.5302352 302.516045,36.0956455 303.24648,35.801604 C303.827847,35.6592065 308.068843,34.0650946 313.619779,34.0650946 C323.264506,34.0650946 324.142146,39.8645553 324.142146,47.2599772 L324.142146,63.2121928 C324.089972,63.9907556 323.463885,64.6121264 322.679412,64.6639073 L320.488106,64.6639073 C319.90115,64.6639073 319.610466,64.3754137 319.316056,63.6504811 L318.589347,61.6180808 C316.109222,64.0739749 312.738412,65.4332235 309.237167,65.3869906 C303.537163,65.3869906 299.445235,61.6180808 299.445235,55.3840305 C299.59244,50.0173101 303.976915,45.8138107 311.722883,45.8138107 L311.722883,45.8101121 Z M283.371932,34.0650946 C288.050818,34.0650946 291.555789,35.801604 294.332188,39.2820202 C294.917282,40.0106514 294.76635,40.8779814 294.041505,41.4586672 L291.702994,43.6371636 C290.825354,44.3602469 290.24026,43.7795611 289.800508,43.3449714 C288.488706,41.8951062 286.00299,40.299145 283.519137,40.299145 C278.406091,40.299145 274.310436,44.506343 274.310436,49.7251179 C274.310436,55.0918382 278.258885,59.297187 283.228454,59.297187 C287.173177,59.297187 288.779389,57.1242385 290.387465,55.5264279 C290.968832,54.9457421 291.702994,54.9457421 292.429702,55.3803318 L294.479393,56.9781424 C295.207965,57.5588282 295.500512,58.2837608 295.06076,59.1529402 C292.576908,62.9218499 288.488706,65.3869906 283.228454,65.3869906 C274.752051,65.3869906 267.736518,58.7183505 267.736518,49.7251179 C267.883723,41.0240775 275.042734,34.0650946 283.375659,34.0650946 L283.371932,34.0650946 Z M253.856385,20.7204172 C253.856385,19.9973339 254.439615,19.2724013 255.315392,19.2724013 L258.969431,19.2724013 C259.752041,19.3260315 260.374401,19.9437037 260.428439,20.7204172 L260.428439,63.3619875 C260.374401,64.138701 259.752041,64.7563732 258.969431,64.8100034 L255.319118,64.8100034 C254.512286,64.8100034 253.856385,64.1590435 253.856385,63.3582889 L253.856385,20.7204172 Z M237.781218,20.7204172 C237.781218,19.9973339 238.366312,19.2724013 239.242089,19.2724013 L242.896129,19.2724013 C243.678738,19.3260315 244.301099,19.9437037 244.355136,20.7204172 L244.355136,63.3619875 C244.301099,64.138701 243.678738,64.7563732 242.896129,64.8100034 L239.245816,64.8100034 C238.438983,64.8100034 237.781218,64.1590435 237.781218,63.3582889 L237.781218,20.7204172 Z M215.27934,60.1663663 C218.346423,60.1663663 221.413506,57.9934179 222.291146,56.5435527 L222.291146,51.6114221 C221.855121,51.3210792 219.514746,50.5942973 216.738347,50.5942973 C213.231512,50.5942973 210.456976,52.4843001 210.456976,55.5264279 C210.456976,58.1376647 212.063189,60.1663663 215.27934,60.1663663 Z M216.15698,45.8101121 C219.224063,45.8101121 222.291146,46.6792915 222.291146,46.6792915 C222.438351,41.8951062 221.270027,39.8682539 217.468782,39.8682539 C213.963811,39.8682539 210.604181,40.8816801 208.997969,41.3162698 C208.118466,41.4586672 207.533372,40.8816801 207.242689,40.0106514 L206.655732,37.5455107 C206.512253,36.5302352 206.946415,36.0956455 207.680577,35.801604 C208.263807,35.6592065 212.502941,34.0650946 218.053876,34.0650946 C227.698603,34.0650946 228.721585,39.8645553 228.721585,47.2599772 L228.721585,63.2121928 C228.667548,63.9907556 228.045187,64.6102771 227.260714,64.6639073 L225.067545,64.6639073 C224.484315,64.6639073 224.193632,64.3754137 223.755743,63.6504811 L223.021581,61.6180808 C220.541455,64.0739749 217.172509,65.4313742 213.673128,65.3869906 C207.97126,65.3869906 203.881196,61.6180808 203.881196,55.3840305 C204.028401,50.0173101 208.411012,45.8138107 216.15698,45.8138107 L216.15698,45.8101121 Z M151.861906,36.238043 C151.861906,35.5131104 152.443273,34.7900272 153.320913,34.7900272 L154.781784,34.7900272 C155.512219,34.7900272 155.953834,35.0785207 156.097312,35.6592065 L156.974953,38.268594 C157.55632,37.5455107 160.772471,34.0650946 166.61968,34.0650946 C171.002291,34.0650946 173.631486,35.801604 175.824655,38.8511291 C176.702295,37.9801004 180.20913,34.0650946 186.050749,34.0650946 C195.261314,34.0650946 197.597962,40.4452411 197.597962,48.2771021 L197.597962,63.3582889 C197.597962,64.1590435 196.94206,64.8100034 196.135228,64.8100034 L192.484915,64.8100034 C191.607274,64.8100034 191.020317,64.2293176 191.020317,63.3582889 L191.020317,47.9867592 C191.020317,43.2007246 189.123422,40.299145 185.031493,40.299145 C180.499813,40.299145 178.308508,43.3449714 177.723414,43.7795611 C177.870619,44.3602469 178.014097,46.2447018 178.014097,47.840663 L178.014097,63.3619875 C178.014097,64.0813722 177.430867,64.8100034 176.702295,64.8100034 L172.90105,64.8100034 C172.02341,64.8100034 171.442043,64.2293176 171.442043,63.3582889 L171.442043,47.9867592 C171.442043,43.0546285 169.686763,40.299145 165.447629,40.299145 C160.919676,40.299145 158.581165,43.6371636 158.290482,44.6542884 L158.290482,63.3582889 C158.238308,64.1368517 157.61222,64.7582225 156.827748,64.8100034 L153.177435,64.8100034 C152.368739,64.8100034 151.714701,64.1590435 151.714701,63.3582889 L151.714701,36.238043 L151.861906,36.238043 Z M124.24139,62.4872602 C123.805365,62.1987666 123.36375,61.6180808 123.65816,60.8912989 L124.971826,58.1376647 C125.266236,57.5588282 126.143876,57.2703346 126.874311,57.7049243 C128.624002,58.7183505 130.819035,59.8778728 134.324006,59.8778728 C136.809722,59.8778728 138.268729,58.7146519 138.268729,56.9781424 C138.268729,54.9494408 135.932081,53.6438224 131.840153,51.7575182 C127.164995,49.7251179 123.65816,47.2636759 123.65816,42.3315452 C123.65816,38.5589369 126.287354,34.207492 133.593571,34.207492 C137.830841,34.207492 140.90165,35.5131104 142.360657,36.3841391 C143.091093,36.9629756 143.385503,37.8340043 142.947614,38.5589369 L141.922769,40.5876385 C141.486744,41.4586672 140.610967,41.4586672 140.02401,41.1701737 C137.981772,40.299145 135.932081,39.7221578 133.593571,39.7221578 C130.96624,39.7221578 129.794189,41.0240775 129.794189,42.3315452 C129.794189,44.2141508 131.987358,45.3736731 134.910963,46.6829901 C140.463762,49.0001853 144.699168,51.0307363 144.699168,56.5417034 C144.699168,61.1834911 140.610967,65.2445931 133.884254,65.2445931 C129.358164,65.534936 125.996671,63.6504811 124.24139,62.4872602 Z M43.5711497,13.3786254 L60.3748877,21.4823361 C61.2059441,21.8836381 61.5543916,22.8767217 61.1481801,23.7015175 C60.9897949,24.0269974 60.7307885,24.2932992 60.4047014,24.4578885 L44.1040693,32.7391337 C43.6214602,32.9758464 43.0550002,32.9758464 42.5723912,32.7391337 L25.7705165,24.6391216 C24.9394601,24.2378197 24.5910126,23.2428867 24.9953607,22.4180909 C25.1537459,22.092611 25.4146157,21.8300079 25.7388395,21.6654186 L42.0394716,13.382324 C42.5220806,13.143762 43.0885406,13.1419127 43.5711497,13.3786254 Z M43.6922677,44.1549726 L83.4655865,23.9474768 C84.2854628,23.5276816 84.6096866,22.5272007 84.1848416,21.7098022 C84.0208664,21.3898702 83.7562699,21.1346643 83.4301827,20.9774723 L43.9997214,1.96463579 C43.5189757,1.72607379 42.9543791,1.72607379 42.4736334,1.96463579 L2.70031466,22.1628851 C1.87857497,22.5826802 1.5524878,23.5831611 1.97360609,24.3987103 C2.13944471,24.7204916 2.40590452,24.9812454 2.73385505,25.1384374 L42.1810866,44.1475754 C42.6562422,44.3805894 43.2152488,44.3805894 43.6922677,44.1475754 L43.6922677,44.1549726 Z M77.1134083,58.7146519 C76.8134081,65.610758 73.0363869,71.8928907 67.0661965,75.4287863 C61.530168,78.2526947 57.0394817,75.3585123 57.0432084,68.9469274 C57.3394819,62.0526705 61.1165031,55.7668392 67.0904202,52.2309436 C72.6245854,49.4070352 77.1134083,52.3141629 77.1134083,58.7109532 L77.1134083,58.7146519 Z M88.8525466,76.0631024 L88.8525466,31.1191313 C88.8450932,30.1907737 88.0811175,29.4436493 87.1457132,29.4510466 C86.87739,29.4528959 86.6127936,29.517622 86.3742841,29.639677 L46.2469279,50.1282692 C45.6860579,50.4093655 45.3338838,50.9789554 45.3320204,51.6021755 L45.3320204,96.5461466 C45.3394738,97.4745041 46.1034495,98.2216285 47.0388539,98.2142313 C47.307177,98.2123819 47.5717735,98.1476558 47.8102829,98.0256008 L87.9506827,77.538858 C88.5059625,77.2522137 88.8525466,76.6844731 88.8525466,76.0631024 Z M26.7990887,80.0095466 L8.73758581,71.3343967 C7.90466599,70.934944 7.5543552,69.9437097 7.95311323,69.1170646 C7.98851698,69.0486399 8.02578408,68.9820644 8.06864126,68.9191876 L17.1096411,55.6244418 C17.638834,54.8514269 18.6990832,54.6498513 19.4779657,55.1750575 C19.7518789,55.3599893 19.9661648,55.6188938 20.092873,55.9221819 L29.1357362,77.8772831 C29.5084073,78.7168734 29.1245561,79.6988612 28.2785928,80.0687248 C27.8015738,80.2776977 27.2537474,80.2536565 26.7990887,80.005848 L26.7990887,80.0095466 Z" id="Fill-1" fill="#1F7CE0" mask="url(#mask-2)"></path>
            </g>
        </g>
    </g>
</svg>