<?xml version="1.0" encoding="UTF-8"?>
<svg
    width="110"
    height="28"
    viewBox="0 0 110 28"
    fill="none"
    xmlns="http://www.w3.org/2000/svg"
>
    <path
        fillRule="evenodd"
        clipRule="evenodd"
        d="M107.862 12.6043C107.82 11.5801 106.988 10.6781 105.741 10.6781C104.368 10.6781 103.578 11.5388 103.454 12.6038H107.862V12.6043ZM105.783 9.12138C108.028 9.12138 109.692 10.7602 109.692 13.014C109.692 13.1786 109.692 13.4645 109.65 13.5878C109.65 13.7921 109.442 13.9568 109.275 13.9568H103.328C103.328 15.1043 104.41 16.2514 105.907 16.2514C106.905 16.2514 107.487 15.883 108.028 15.5553C108.195 15.432 108.361 15.3907 108.527 15.5961L109.025 16.3752C109.192 16.5383 109.234 16.7018 108.984 16.9485C108.36 17.4815 107.238 18.014 105.783 18.014C103.162 18.014 101.499 16.0063 101.499 13.5878C101.499 11.1704 103.163 9.12138 105.783 9.12138ZM94.1394 17.1528C94.0148 17.0713 93.8891 16.9072 93.9729 16.7018L94.3473 15.9237C94.43 15.7602 94.6798 15.6786 94.8871 15.8014C95.3871 16.0878 96.0097 16.4155 97.0077 16.4155C97.7145 16.4155 98.1308 16.0868 98.1308 15.5961C98.1308 15.0228 97.4653 14.6539 96.3013 14.1208C94.9698 13.5465 93.9729 12.851 93.9729 11.4573C93.9729 10.3912 94.7206 9.16162 96.8003 9.16162C98.0061 9.16162 98.8795 9.53056 99.2947 9.77669C99.5031 9.94026 99.5869 10.1864 99.4612 10.3912L99.1706 10.9645C99.046 11.2106 98.7962 11.2106 98.6297 11.1291C98.048 10.883 97.4653 10.7199 96.8003 10.7199C96.0521 10.7199 95.7196 11.0878 95.7196 11.4573C95.7196 11.9893 96.3422 12.3169 97.1747 12.6869C98.7543 13.3417 99.9612 13.9155 99.9612 15.4727C99.9612 16.7844 98.7962 17.932 96.883 17.932C95.5945 18.014 94.6379 17.4815 94.1384 17.1528H94.1394ZM88.1087 16.497C88.9826 16.497 89.8559 15.883 90.1057 15.4733V14.0796C89.9805 13.9975 89.314 13.7921 88.5255 13.7921C87.5265 13.7921 86.7364 14.3262 86.7364 15.1858C86.7782 15.9237 87.2364 16.497 88.1087 16.497ZM88.4009 12.4402C89.2732 12.4402 90.1465 12.6859 90.1465 12.6859C90.1884 11.334 89.8559 10.7612 88.7742 10.7612C87.7762 10.7612 86.8201 11.0476 86.363 11.1704C86.1133 11.2106 85.9468 11.0476 85.8641 10.8015L85.697 10.1049C85.6562 9.81797 85.7808 9.69517 85.9887 9.61208C86.1541 9.57184 87.361 9.12138 88.9407 9.12138C91.6853 9.12138 91.9351 10.7602 91.9351 12.8499V17.3577C91.9203 17.5777 91.7421 17.7532 91.5188 17.7679H90.8952C90.7282 17.7679 90.6455 17.6864 90.5617 17.4815L90.3549 16.9072C89.6491 17.6012 88.6899 17.9853 87.6935 17.9722C86.0714 17.9722 84.9069 16.9072 84.9069 15.1456C84.9488 13.6291 86.1965 12.4413 88.4009 12.4413V12.4402ZM80.3328 9.12138C81.6643 9.12138 82.6618 9.61208 83.4519 10.5956C83.6184 10.8015 83.5754 11.0465 83.3691 11.2106L82.7037 11.8262C82.4539 12.0305 82.2874 11.8665 82.1623 11.7437C81.7889 11.334 81.0816 10.883 80.3747 10.883C78.9197 10.883 77.7541 12.0718 77.7541 13.5465C77.7541 15.063 78.8778 16.2514 80.292 16.2514C81.4146 16.2514 81.8717 15.6373 82.3293 15.1858C82.4947 15.0218 82.7037 15.0218 82.9105 15.1446L83.4938 15.5961C83.7011 15.7602 83.7843 15.965 83.6592 16.2106C82.9524 17.2756 81.7889 17.9722 80.292 17.9722C77.8798 17.9722 75.8834 16.0878 75.8834 13.5465C75.9252 11.0878 77.9625 9.12138 80.3339 9.12138H80.3328ZM71.9334 5.3505C71.9334 5.14617 72.0994 4.94132 72.3486 4.94132H73.3884C73.6112 4.95648 73.7883 5.13101 73.8036 5.3505V17.4C73.7883 17.6195 73.6112 17.794 73.3884 17.8092H72.3496C72.12 17.8092 71.9334 17.6252 71.9334 17.3989V5.3505ZM67.3588 5.3505C67.3588 5.14617 67.5253 4.94132 67.7745 4.94132H68.8143C69.0371 4.95648 69.2142 5.13101 69.2295 5.3505V17.4C69.2142 17.6195 69.0371 17.794 68.8143 17.8092H67.7756C67.5459 17.8092 67.3588 17.6252 67.3588 17.3989V5.3505ZM60.9552 16.497C61.8281 16.497 62.7009 15.883 62.9506 15.4733V14.0796C62.8266 13.9975 62.1605 13.7921 61.3704 13.7921C60.3725 13.7921 59.5829 14.3262 59.5829 15.1858C59.5829 15.9237 60.04 16.497 60.9552 16.497ZM61.205 12.4402C62.0778 12.4402 62.9506 12.6859 62.9506 12.6859C62.9925 11.334 62.66 10.7612 61.5783 10.7612C60.5809 10.7612 59.6248 11.0476 59.1677 11.1704C58.9174 11.2106 58.7509 11.0476 58.6682 10.8015L58.5012 10.1049C58.4603 9.81797 58.5839 9.69517 58.7928 9.61208C58.9588 9.57184 60.1651 9.12138 61.7448 9.12138C64.4895 9.12138 64.7806 10.7602 64.7806 12.8499V17.3577C64.7652 17.5777 64.5881 17.7527 64.3649 17.7679H63.7407C63.5748 17.7679 63.492 17.6864 63.3674 17.4815L63.1585 16.9072C62.4527 17.6012 61.494 17.9847 60.4981 17.9722C58.8755 17.9722 57.7116 16.9072 57.7116 15.1456C57.7535 13.6291 59.0007 12.4413 61.205 12.4413V12.4402ZM42.9081 9.73541C42.9081 9.53056 43.0735 9.32623 43.3233 9.32623H43.739C43.9469 9.32623 44.0726 9.40775 44.1134 9.57184L44.3631 10.3092C44.5286 10.1049 45.4438 9.12138 47.1078 9.12138C48.355 9.12138 49.1032 9.61208 49.7273 10.4738C49.9771 10.2277 50.9751 9.12138 52.6375 9.12138C55.2586 9.12138 55.9235 10.9243 55.9235 13.1374V17.3989C55.9235 17.6252 55.7369 17.8092 55.5073 17.8092H54.4685C54.2187 17.8092 54.0517 17.6451 54.0517 17.3989V13.0553C54.0517 11.7029 53.5119 10.883 52.3474 10.883C51.0578 10.883 50.4342 11.7437 50.2677 11.8665C50.3096 12.0305 50.3504 12.5631 50.3504 13.014V17.4C50.3504 17.6033 50.1844 17.8092 49.9771 17.8092H48.8953C48.6456 17.8092 48.4801 17.6451 48.4801 17.3989V13.0553C48.4801 11.6616 47.9806 10.883 46.7743 10.883C45.4857 10.883 44.8202 11.8262 44.7375 12.1136V17.3989C44.7227 17.6189 44.5445 17.7945 44.3213 17.8092H43.2825C43.0523 17.8092 42.8662 17.6252 42.8662 17.3989V9.73541H42.9081ZM35.0479 17.1528C34.9238 17.0713 34.7982 16.9072 34.882 16.7018L35.2558 15.9237C35.3396 15.7602 35.5893 15.6786 35.7972 15.8014C36.2951 16.0878 36.9198 16.4155 37.9172 16.4155C38.6246 16.4155 39.0398 16.0868 39.0398 15.5961C39.0398 15.0228 38.3748 14.6539 37.2104 14.1208C35.8799 13.5465 34.882 12.851 34.882 11.4573C34.882 10.3912 35.6302 9.16162 37.7093 9.16162C38.9152 9.16162 39.7891 9.53056 40.2043 9.77669C40.4121 9.94026 40.4959 10.1864 40.3713 10.3912L40.0796 10.9645C39.9556 11.2106 39.7063 11.2106 39.5393 11.1291C38.9581 10.883 38.3748 10.7199 37.7093 10.7199C36.9617 10.7199 36.6281 11.0878 36.6281 11.4573C36.6281 11.9893 37.2522 12.3169 38.0842 12.6869C39.6644 13.3417 40.8697 13.9155 40.8697 15.4727C40.8697 16.7844 39.7063 17.932 37.7921 17.932C36.504 18.014 35.5474 17.4815 35.0479 17.1528ZM12.091 3.27588L16.873 5.5658C17.1095 5.67919 17.2086 5.95982 17.093 6.19288C17.048 6.28486 16.9743 6.36011 16.8815 6.40662L12.2427 8.7467C12.1053 8.81359 11.9441 8.81359 11.8068 8.7467L7.02537 6.45783C6.78887 6.34443 6.68971 6.06329 6.80478 5.83022C6.84985 5.73825 6.92409 5.66404 7.01635 5.61753L11.6551 3.27693C11.7925 3.20951 11.9537 3.20899 12.091 3.27588ZM12.1255 11.9725L23.4441 6.26239C23.6774 6.14376 23.7696 5.86105 23.6487 5.63007C23.6021 5.53967 23.5268 5.46755 23.434 5.42313L12.213 0.050559C12.0762 -0.016853 11.9155 -0.016853 11.7787 0.050559L0.460116 5.7581C0.226268 5.87673 0.133471 6.15944 0.253312 6.38989C0.300505 6.48082 0.376334 6.5545 0.469661 6.59892L11.6954 11.9705C11.8307 12.0363 11.9897 12.0363 12.1255 11.9705V11.9725ZM21.6364 16.0868C21.551 18.0354 20.4762 19.8106 18.7772 20.8098C17.2017 21.6077 15.9238 20.7899 15.9249 18.9782C16.0092 17.03 17.084 15.2538 18.7841 14.2546C20.359 13.4567 21.6364 14.2781 21.6364 16.0857V16.0868ZM24.9771 20.989V8.28892C24.9749 8.02659 24.7575 7.81547 24.4913 7.81756C24.415 7.81809 24.3397 7.83638 24.2718 7.87087L12.8525 13.6605C12.6929 13.7399 12.5927 13.9008 12.5921 14.0769V26.777C12.5942 27.0394 12.8117 27.2505 13.0778 27.2484C13.1542 27.2479 13.2295 27.2296 13.2974 27.1951L24.7204 21.406C24.8784 21.325 24.9771 21.1646 24.9771 20.989ZM7.31808 22.1042L2.17819 19.6528C1.94116 19.5399 1.84146 19.2598 1.95494 19.0262C1.96502 19.0069 1.97562 18.9881 1.98782 18.9703L4.56068 15.2135C4.71128 14.9951 5.013 14.9381 5.23465 15.0866C5.3126 15.1388 5.37358 15.212 5.40964 15.2977L7.98303 21.5017C8.08909 21.7389 7.97985 22.0164 7.73911 22.1209C7.60336 22.18 7.44746 22.1732 7.31808 22.1031V22.1042Z"
        fill="#2F363F" 
    />
</svg>
