<?xml version="1.0" encoding="UTF-8"?>
<svg width="24px" height="24px" viewBox="0 0 24 24" version="1.1" xmlns="http://www.w3.org/2000/svg" xmlns:xlink="http://www.w3.org/1999/xlink">
    <!-- Generator: Sketch 50.1 (55044) - http://www.bohemiancoding.com/sketch -->
    <title>icons/collections</title>
    <desc>Created with Sketch.</desc>
    <defs></defs>
    <g id="icons/collections" stroke="none" stroke-width="1" fill="none" fill-rule="evenodd">
        <g id="collections-large" transform="translate(2.000000, 3.000000)" fill="#1F7AE0">
            <path d="M2.63157895,4.22222222 C2.63157895,3.63902778 3.10526316,3.16666667 3.67947368,3.16666667 L16.3210526,3.16666667 C16.8994737,3.16666667 17.3684211,3.63533333 17.3684211,4.22222222 C17.3684211,4.80541667 16.8947368,5.27777778 16.3205263,5.27777778 L3.67894737,5.27777778 C3.40025368,5.27778131 3.1330507,5.16640316 2.93647902,4.96829491 C2.73990734,4.77018666 2.63017848,4.50168653 2.63157895,4.22222222 Z" id="Shape" fill-opacity="0.539" fill-rule="nonzero"></path>
            <path d="M4.73684211,1.05555556 C4.73683486,1.6364679 5.2049146,2.10820655 5.78421053,2.11111111 L14.2157895,2.11111111 C14.7936842,2.11111111 15.2631579,1.64244444 15.2631579,1.05555556 C15.2631651,0.474643216 14.7950854,0.00290456165 14.2157895,0 L5.78421053,0 C5.20631579,0 4.73684211,0.468666667 4.73684211,1.05555556 Z" id="Shape" fill-opacity="0.262"></path>
            <path d="M0.853684211,16.9986667 C0.965789474,18.1201944 1.93263158,19 3.05368421,19 L16.7473684,19 C17.8642105,19 18.8363158,18.1165 18.9473684,16.9986667 L19.7905263,8.54472222 C19.9105263,7.34033333 19,6.33333333 17.7947368,6.33333333 L2.00684211,6.33333333 C0.799473684,6.33333333 -0.108947368,7.34244444 0.0105263158,8.54472222 L0.853684211,16.9986667 Z" id="Shape"></path>
        </g>
    </g>
</svg>