<?xml version="1.0" encoding="UTF-8"?>
<svg width="111px" height="29px" viewBox="0 0 111 29" version="1.1" xmlns="http://www.w3.org/2000/svg" xmlns:xlink="http://www.w3.org/1999/xlink">
    <!-- Generator: Sketch 50.2 (55047) - http://www.bohemiancoding.com/sketch -->
    <title>logo</title>
    <desc>Created with Sketch.</desc>
    <defs></defs>
    <g id="Page-1" stroke="none" stroke-width="1" fill="none" fill-rule="evenodd">
        <g id="sandeep-awi-landing-invested" transform="translate(-251.000000, -22.000000)" fill="#1F7AE0" fill-rule="nonzero">
            <g id="header-logged-out">
                <g id="logo" transform="translate(251.000000, 22.000000)">
                    <g id="smallcase_logo">
                        <path d="M7.39288077,23.222152 L2.05415445,20.6480175 C1.92488423,20.5862454 1.82883611,20.4716469 1.79085854,20.3338693 C1.75288097,20.1960918 1.77670502,20.048671 1.8561672,19.9297461 L4.52899512,15.9832002 C4.63307928,15.8306327 4.81271811,15.7472305 4.99687184,15.7659758 C5.18102556,15.7847212 5.34003879,15.9025954 5.41102834,16.0729841 L8.08385624,22.589718 C8.17009075,22.7832545 8.12277497,23.0100534 7.96628182,23.153288 C7.80978873,23.2965225 7.57903339,23.3242357 7.39288077,23.222152 Z M25.7373897,22.0510145 L25.7373897,8.70872945 C25.736136,8.53482476 25.6441716,8.37410218 25.4946362,8.28447857 C25.3451008,8.19485502 25.1595459,8.18924732 25.0048369,8.26967619 L13.1424306,14.3513034 C12.977068,14.4352802 12.8727354,14.6043982 12.872178,14.78937 L12.872178,28.1316552 C12.8734317,28.3055599 12.9653961,28.4662824 13.1149314,28.555906 C13.2644669,28.6455296 13.4500217,28.6511373 13.6047308,28.5707084 L25.4710969,22.4890811 C25.6349238,22.4040238 25.7375965,22.2351215 25.7373897,22.0510145 Z M22.2666732,16.9007721 C22.1785043,18.9476925 21.0621754,20.8127941 19.2968644,21.862567 C17.6604997,22.701208 16.3329952,21.8418476 16.3339852,19.9396125 C16.4218263,17.8923362 17.5381975,16.0267934 19.303794,14.976831 C20.9401586,14.1372033 22.2666732,15.0005103 22.2666732,16.8997855 L22.2666732,16.9007721 Z M12.3871092,12.5783177 L24.1445823,6.58055452 C24.3116663,6.49524829 24.415948,6.32307473 24.4138506,6.13598106 C24.4117531,5.94888734 24.3036376,5.77907901 24.1346829,5.69751489 L12.4781834,0.0529675894 C12.3360554,-0.0176558632 12.1689004,-0.0176558632 12.0267724,0.0529675894 L0.269299358,6.0497441 C0.102215351,6.13505033 -0.00206636635,6.30722394 3.10572552e-05,6.49431761 C0.00212848085,6.68141128 0.110244005,6.85121961 0.27919872,6.93278378 L11.940648,12.5773311 C12.081418,12.646326 12.2463391,12.646326 12.3871092,12.5773311 L12.3871092,12.5783177 Z M12.3514715,3.44305054 L17.3189717,5.84748365 C17.4878291,5.929238 17.5957494,6.09916355 17.5976371,6.28625521 C17.5995247,6.47334687 17.4950549,6.64540108 17.3278811,6.73052328 L12.5088714,9.18922141 C12.3663635,9.25971076 12.1989783,9.25971076 12.0564705,9.18922141 L7.08897031,6.7847883 C6.9201129,6.70303396 6.81219258,6.5331084 6.8103049,6.34601668 C6.80841722,6.15892502 6.91288716,5.98687081 7.08006089,5.90174862 L11.8990706,3.44305054 C12.0413871,3.37209683 12.2088448,3.37173162 12.3514715,3.4420639 L12.3514715,3.44305054 Z" id="logo"></path>
                    </g>
                    <g id="smallcase_text" transform="translate(32.777619, 4.933182)">
                        <path d="M0.56156383,13.088181 C0.431972178,13.0020746 0.302380524,12.8298617 0.38877496,12.6145955 L0.777549918,11.7965842 C0.863944354,11.6243713 1.12312766,11.5382648 1.33911375,11.6674245 C1.85748037,11.9687972 2.50543863,12.313223 3.54217186,12.313223 C4.27652457,12.313223 4.70849674,11.9687972 4.70849674,11.4521584 C4.70849674,10.8494132 4.01734126,10.4619342 2.80781916,9.90224224 C1.42550818,9.29949703 0.38877496,8.56759219 0.38877496,7.10378245 C0.38877496,5.98439856 1.16632488,4.69280175 3.32618577,4.69280175 C4.57890508,4.69280175 5.48604666,5.08028079 5.91801885,5.33860016 C6.13400493,5.51081307 6.22039939,5.7691324 6.09080771,5.98439856 L5.78842716,6.58714377 C5.65883553,6.84546311 5.39965222,6.84546311 5.22686335,6.75935664 C4.62210231,6.5010373 4.01734126,6.32882437 3.32618577,6.32882437 C2.54863585,6.32882437 2.20305811,6.71630341 2.20305811,7.10378245 C2.20305811,7.66347442 2.85101637,8.00790022 3.71496073,8.39537926 C5.35645501,9.08423093 6.60917434,9.68697607 6.60917434,11.3229987 C6.60917434,12.700702 5.39965222,13.9061924 3.41258021,13.9061924 C2.07346645,13.9922988 1.07993044,13.4326069 0.56156383,13.088181 Z" id="Shape"></path>
                        <path d="M8.725838,5.29554694 C8.725838,5.08028079 8.89862686,4.86501466 9.15781017,4.86501466 L9.58978235,4.86501466 C9.80576844,4.86501466 9.93536013,4.95112112 9.9785573,5.12333403 L10.2377406,5.8982921 C10.4105295,5.68302599 11.3608682,4.64974853 13.0887569,4.64974853 C14.3846735,4.64974853 15.1622234,5.16638725 15.8101817,6.07050503 C16.069365,5.81218563 17.1060982,4.64974853 18.8339869,4.64974853 C21.5554117,4.64974853 22.2465672,6.54409053 22.2465672,8.86896476 L22.2465672,13.3465004 C22.2465672,13.5617666 22.0737783,13.7770327 21.814595,13.7770327 L20.7346645,13.7770327 C20.4754812,13.7770327 20.3026924,13.6048197 20.3026924,13.3465004 L20.3026924,8.78285835 C20.3026924,7.36210184 19.7411286,6.5010373 18.5316064,6.5010373 C17.1924927,6.5010373 16.5445344,7.40515507 16.3717455,7.53431472 C16.4149427,7.70652765 16.45814,8.26621962 16.45814,8.73980507 L16.45814,13.3465004 C16.45814,13.5617666 16.2853511,13.7770327 16.069365,13.7770327 L14.9462373,13.7770327 C14.687054,13.7770327 14.5142652,13.6048197 14.5142652,13.3465004 L14.5142652,8.78285835 C14.5142652,7.31904861 13.9958985,6.5010373 12.7431792,6.5010373 C11.4040655,6.5010373 10.71291,7.49126148 10.6265156,7.79263411 L10.6265156,13.3465004 C10.6265156,13.5617666 10.4105295,13.7770327 10.1945433,13.7770327 L9.11461294,13.7770327 C8.89862686,13.7770327 8.68264077,13.6048197 8.68264077,13.3465004 L8.68264077,5.29554694 L8.725838,5.29554694 Z" id="Shape"></path>
                        <path d="M27.7326138,8.13705992 C28.6397554,8.13705992 29.5468969,8.39537926 29.5468969,8.39537926 C29.5900942,6.9746228 29.2445165,6.3718776 28.1213888,6.3718776 C27.0846556,6.3718776 26.0911195,6.67325017 25.6159502,6.80240987 C25.3567669,6.84546311 25.1839779,6.67325017 25.0975835,6.41493083 L24.9247947,5.68302599 C24.8815975,5.38165338 25.0111891,5.2524937 25.2271752,5.16638725 C25.399964,5.12333403 26.6526834,4.64974853 28.2941776,4.64974853 C31.145194,4.64974853 31.4475746,6.3718776 31.4475746,8.56759219 L31.4475746,13.3034472 C31.4475746,13.5187133 31.2315885,13.7339794 31.0156024,13.7339794 L30.3676441,13.7339794 C30.1948553,13.7339794 30.1084608,13.647873 29.9788692,13.4326069 L29.762883,12.8298617 C29.2877137,13.3034472 28.380572,13.9492456 26.9982612,13.9492456 C25.3135696,13.9492456 24.1040476,12.8298617 24.1040476,10.9785729 C24.1472447,9.3856035 25.4431613,8.13705992 27.7326138,8.13705992 Z M27.4734305,12.3993294 C28.380572,12.3993294 29.2877137,11.753531 29.5468969,11.3229987 L29.5468969,9.859189 C29.4173053,9.77308254 28.7261498,9.55781643 27.9054028,9.55781643 C26.8686695,9.55781643 26.0479224,10.1175084 26.0479224,11.0216261 C26.0479224,11.7965842 26.5230918,12.3993294 27.4734305,12.3993294 Z" id="Shape"></path>
                        <path d="M34.1258021,0.688851634 C34.1258021,0.473585498 34.2985909,0.258319363 34.5577743,0.258319363 L35.6377047,0.258319363 C35.8536908,0.258319363 36.0696769,0.473585498 36.0696769,0.688851634 L36.0696769,13.3465004 C36.0696769,13.5617666 35.8536908,13.7770327 35.6377047,13.7770327 L34.5577743,13.7770327 C34.3417882,13.7770327 34.1258021,13.6048197 34.1258021,13.3465004 L34.1258021,0.688851634 Z" id="Shape"></path>
                        <path d="M38.877496,0.688851634 C38.877496,0.473585498 39.0502849,0.258319363 39.3094682,0.258319363 L40.3893986,0.258319363 C40.6053847,0.258319363 40.8213708,0.473585498 40.8213708,0.688851634 L40.8213708,13.3465004 C40.8213708,13.5617666 40.6053847,13.7770327 40.3893986,13.7770327 L39.3094682,13.7770327 C39.0934821,13.7770327 38.877496,13.6048197 38.877496,13.3465004 L38.877496,0.688851634 Z" id="Shape"></path>
                        <path d="M47.603334,4.64974853 C48.985645,4.64974853 50.0223782,5.16638725 50.8431253,6.19966473 C51.0159142,6.41493083 50.972717,6.67325017 50.7567309,6.84546311 L50.0655754,7.49126148 C49.8063921,7.70652765 49.6336033,7.53431472 49.5040116,7.40515507 C49.1152366,6.9746228 48.3808839,6.5010373 47.6465312,6.5010373 C46.1346286,6.5010373 44.9251065,7.74958088 44.9251065,9.29949703 C44.9251065,10.8924664 46.0914314,12.14101 47.5601368,12.14101 C48.7264617,12.14101 49.2016311,11.4952116 49.6768005,11.0216261 C49.8495893,10.8494132 50.0655754,10.8494132 50.2815615,10.9785729 L50.8863226,11.4521584 C51.1023086,11.6243713 51.1887031,11.8396375 51.0591115,12.0979568 C50.3247587,13.2173407 49.1152366,13.9492456 47.5601368,13.9492456 C45.0546982,13.9492456 42.9812317,11.9687972 42.9812317,9.29949703 C43.0244289,6.71630341 45.1410926,4.64974853 47.603334,4.64974853 Z" id="Shape"></path>
                        <path d="M55.9835943,8.13705992 C56.8907361,8.13705992 57.7978772,8.39537926 57.7978772,8.39537926 C57.8410744,6.9746228 57.495497,6.3718776 56.3723694,6.3718776 C55.335636,6.3718776 54.3421,6.67325017 53.8669306,6.80240987 C53.6077472,6.84546311 53.4349584,6.67325017 53.348564,6.41493083 L53.1757751,5.68302599 C53.1325779,5.38165338 53.2621695,5.2524937 53.4781557,5.16638725 C53.6509445,5.12333403 54.9036638,4.64974853 56.5451581,4.64974853 C59.3961743,4.64974853 59.6553579,6.3718776 59.6553579,8.56759219 L59.6553579,13.3034472 C59.6553579,13.5187133 59.4393715,13.7339794 59.2233856,13.7339794 L58.5754275,13.7339794 C58.4026382,13.7339794 58.3162439,13.647873 58.2298495,13.4326069 L58.0138637,12.8298617 C57.5386942,13.3034472 56.6315525,13.9492456 55.2492415,13.9492456 C53.5645501,13.9492456 52.3550279,12.8298617 52.3550279,10.9785729 C52.3982252,9.3856035 53.6941417,8.13705992 55.9835943,8.13705992 Z M55.6812137,12.3993294 C56.5883553,12.3993294 57.495497,11.753531 57.7546801,11.3229987 L57.7546801,9.859189 C57.6250886,9.77308254 56.9339332,9.55781643 56.1131858,9.55781643 C55.0764527,9.55781643 54.2557056,10.1175084 54.2557056,11.0216261 C54.2989027,11.7965842 54.7740721,12.3993294 55.6812137,12.3993294 Z" id="Shape"></path>
                        <path d="M61.9448103,13.088181 C61.8152188,13.0020746 61.6856267,12.8298617 61.7720216,12.6145955 L62.1607962,11.7965842 C62.2471905,11.6243713 62.5063741,11.5382648 62.72236,11.6674245 C63.2407266,11.9687972 63.8886853,12.313223 64.9254186,12.313223 C65.6597711,12.313223 66.0917434,11.9687972 66.0917434,11.4521584 C66.0917434,10.8494132 65.4005875,10.4619342 64.1910656,9.90224224 C62.8087549,9.29949703 61.7720216,8.56759219 61.7720216,7.10378245 C61.7720216,5.98439856 62.5495713,4.69280175 64.7094322,4.69280175 C65.9621513,4.69280175 66.8692931,5.08028079 67.3012654,5.33860016 C67.5172512,5.51081307 67.6036461,5.7691324 67.4740541,5.98439856 L67.1716738,6.58714377 C67.0420823,6.84546311 66.7828987,6.84546311 66.61011,6.75935664 C66.0053491,6.5010373 65.4005875,6.32882437 64.7094322,6.32882437 C63.9318825,6.32882437 63.5863046,6.71630341 63.5863046,7.10378245 C63.5863046,7.66347442 64.2342627,8.00790022 65.0982073,8.39537926 C66.7397016,9.08423093 67.9924207,9.68697607 67.9924207,11.3229987 C67.9924207,12.700702 66.7828987,13.9061924 64.7958265,13.9061924 C63.4567131,13.9922988 62.463177,13.4326069 61.9448103,13.088181 Z" id="Shape"></path>
                        <path d="M74.0400311,4.64974853 C76.3726812,4.64974853 78.1005698,6.3718776 78.1005698,8.73980507 C78.1005698,8.912018 78.1005698,9.21339057 78.0573726,9.34255027 C78.0573726,9.55781643 77.8413867,9.73002931 77.6685975,9.73002931 L71.4913956,9.73002931 C71.4913956,10.9355197 72.6145232,12.14101 74.1696231,12.14101 C75.2063564,12.14101 75.8111174,11.753531 76.3726812,11.4091052 C76.5454699,11.2799455 76.7182586,11.2368923 76.8910478,11.4521584 L77.4094145,12.2701697 C77.5822032,12.4423827 77.6254003,12.6145955 77.3662173,12.8729149 C76.7182586,13.4326069 75.5519338,13.9922988 74.0400311,13.9922988 C71.3186064,13.9922988 69.5907178,11.8826906 69.5907178,9.34255027 C69.5907178,6.80240987 71.3186064,4.64974853 74.0400311,4.64974853 Z M76.1998919,8.30927285 C76.1566948,7.23294214 75.2927507,6.28577114 73.9968339,6.28577114 C72.5713261,6.28577114 71.7505787,7.18988891 71.6209871,8.30927285 L76.1998919,8.30927285 Z" id="Shape"></path>
                    </g>
                </g>
            </g>
        </g>
    </g>
</svg>