<svg width="26" height="29" xmlns="http://www.w3.org/2000/svg"><path d="M7.468 23.537l-5.393-2.61a.5.5 0 0 1-.2-.727l2.7-4a.509.509 0 0 1 .891.09l2.7 6.606a.5.5 0 0 1-.698.64zm18.531-1.187V8.827a.506.506 0 0 0-.74-.445l-11.983 6.164a.5.5 0 0 0-.273.444v13.523a.506.506 0 0 0 .74.445l11.987-6.164a.5.5 0 0 0 .269-.444zm-3.506-5.22a6.164 6.164 0 0 1-3 5.029c-1.653.85-2.994-.021-2.993-1.95a6.164 6.164 0 0 1 3-5.03c1.653-.85 2.993.025 2.993 1.95zm-9.98-4.381l11.877-6.08a.5.5 0 0 0-.01-.894L12.605.054a.511.511 0 0 0-.456 0L.272 6.132a.5.5 0 0 0 .01.895l11.78 5.72c.142.07.309.07.451 0v.002zm-.036-9.26l5.018 2.438a.5.5 0 0 1 .009.895l-4.868 2.492a.514.514 0 0 1-.457 0L7.161 6.877a.5.5 0 0 1-.009-.895L12.02 3.49a.513.513 0 0 1 .457-.001z" fill="#1F7AE0" fill-rule="evenodd"/></svg>