<?xml version="1.0" encoding="UTF-8"?>
<svg width="193px" height="114px" viewBox="0 0 193 114" version="1.1" xmlns="http://www.w3.org/2000/svg" xmlns:xlink="http://www.w3.org/1999/xlink">
    <title>Group 11</title>
    <defs>
        <polygon id="path-1" points="0.9 0.9 192.9 0.9 192.9 113.9 0.9 113.9"></polygon>
    </defs>
    <g id="smallcase-profile" stroke="none" stroke-width="1" fill="none" fill-rule="evenodd">
        <g id="smallcase-profile-desktop-scrolled-copy-5" transform="translate(-241.000000, -764.000000)">
            <g id="Group-11" transform="translate(241.000000, 764.000000)">
                <mask id="mask-2" fill="white">
                    <use xlink:href="#path-1"></use>
                </mask>
                <g id="Mask-Copy"></g>
                <g id="Group-2" mask="url(#mask-2)">
                    <g transform="translate(-12.000000, -5.000000)">
                        <g id="Group-8" stroke-width="1" fill="none" fill-rule="evenodd" transform="translate(96.559633, 66.500000) scale(-1, 1) translate(-96.559633, -66.500000) translate(0.059633, 0.000000)">
                            <circle id="Oval" fill="#84FFB5" opacity="0.200000003" cx="46.3876147" cy="102.672018" r="12.5940367"></circle>
                            <circle id="Oval-Copy" fill="#FBE9C0" cx="53.6788991" cy="29.0963303" r="5.30275229"></circle>
                            <circle id="Oval-Copy-2" fill="#C0DAF6" opacity="0.400000006" cx="134.545872" cy="86.1009174" r="5.30275229"></circle>
                            <polygon id="Path-2" fill="#FFE0ED" opacity="0.400000006" transform="translate(168.892055, 51.911040) rotate(38.000000) translate(-168.892055, -51.911040) " points="152.455169 45.655889 179.926697 69.4364562 185.328942 34.3856231"></polygon>
                            <polygon id="Path-2-Copy-2" fill="#FAD9F4" opacity="0.400000006" transform="translate(36.760027, 63.185039) rotate(38.000000) translate(-36.760027, -63.185039) " points="22.1774584 57.7436646 46.5498024 78.4304519 51.342596 47.9396262"></polygon>
                            <polygon id="Path-2-Copy" fill="#27BC94" opacity="0.375116257" transform="translate(127.825158, 41.222830) rotate(128.000000) translate(-127.825158, -41.222830) " points="122.986239 39.4116993 131.036513 46.3952022 132.664077 36.0504587"></polygon>
                            <polygon id="Page-1" fill="#FAD9F4" transform="translate(118.637615, 117.254587) rotate(168.000000) translate(-118.637615, -117.254587) " points="118.803844 108.637615 113.334862 111.27433 118.472775 125.87156 123.940367 124.110863"></polygon>
                            <polygon id="Page-1-Copy" fill="#FBE9C0" transform="translate(14.791047, 22.264696) rotate(47.000000) translate(-14.791047, -22.264696) " points="15.0207364 9.83725341 7.46388845 13.639938 14.563277 34.6921382 22.1182051 32.1528528"></polygon>
                            <polygon id="Page-1-Copy-2" fill="#FBE9C0" opacity="0.5" transform="translate(159.235854, 110.520421) rotate(47.000000) translate(-159.235854, -110.520421) " points="159.465544 98.0929783 151.908696 101.895663 159.008084 122.947863 166.563012 120.408578"></polygon>
                            <path d="M85.9975827,129.848624 L80.9485801,128.454711 C80.9485801,121.32632 75.3898584,118.470939 68.2614679,118.470939 L68.7636377,112.614679 C78.2660041,112.614679 85.9975827,120.346257 85.9975827,129.848624 Z" id="Path" fill="#FBE9C0" fill-rule="nonzero" transform="translate(77.129525, 121.231651) rotate(-73.000000) translate(-77.129525, -121.231651) "></path>
                            <path d="M162.456229,19.8817439 L157.407226,18.4878306 C157.407226,11.3594401 151.848504,8.50405917 144.720114,8.50405917 L145.222284,2.64779894 C154.72465,2.64779894 162.456229,10.3793775 162.456229,19.8817439 Z" id="Path-Copy-2" fill="#FBE9C0" fill-rule="nonzero" transform="translate(153.588171, 11.264771) rotate(-73.000000) translate(-153.588171, -11.264771) "></path>
                            <path d="M96.1009174,21.0963303 L91.0519149,19.702417 C91.0519149,12.5740265 85.4931931,9.71864555 78.3648026,9.71864555 L78.8669725,3.86238532 C88.3693389,3.86238532 96.1009174,11.5939639 96.1009174,21.0963303 Z" id="Path-Copy" fill="#C0DAF6" fill-rule="nonzero" opacity="0.300000012" transform="translate(87.232860, 12.479358) rotate(176.000000) translate(-87.232860, -12.479358) "></path>
                        </g>
                        <path d="M85.7038565,45.6046263 C86.6070817,44.7021616 88.0693364,44.7021616 88.9725616,45.6046263 L88.9725616,45.6046263 L94.932462,51.5687413 C95.8333772,52.471206 95.8310672,53.9322295 94.930152,54.8323862 L94.930152,54.8323862 L90.3383272,59.420345 C90.3375335,59.4199478 90.337335,59.4201463 90.3371365,59.420345 L90.2539879,59.5145871 C89.9491315,59.9070034 89.9771422,60.4741805 90.3383272,60.8339628 L90.3383272,60.8339628 L100.473713,70.960815 C100.864764,71.3503462 101.49747,71.3503462 101.888522,70.960815 L101.888522,70.960815 L106.473417,66.3797806 C107.376642,65.4773158 108.843516,65.4773158 109.744432,66.3843967 L109.744432,66.3843967 L115.699712,72.3715926 C116.598317,73.2740574 116.596007,74.7304647 115.695092,75.6306214 L115.695092,75.6306214 L110.421273,80.9 C93.8351935,80.9 80.390767,67.4668928 80.4000024,50.9017021 L80.4000024,50.9017021 Z M98.9000024,43.9 C109.10044,43.9 117.400002,52.1995625 117.400002,62.4 L112.775002,62.4 C112.775002,54.7479375 106.552065,48.525 98.9000024,48.525 L98.9000024,43.9 Z" id="Combined-Shape" fill="#27BC94" fill-rule="nonzero"></path>
                    </g>
                </g>
            </g>
        </g>
    </g>
</svg>